<svg width="28" height="32" viewBox="0 0 28 32" fill="none" xmlns="http://www.w3.org/2000/svg">
<path d="M14.0062 8.81251C10.0312 8.81251 6.82499 12.0188 6.82499 15.9938C6.82499 19.9688 10.0312 23.175 14.0062 23.175C17.9812 23.175 21.1875 19.9688 21.1875 15.9938C21.1875 12.0188 17.9812 8.81251 14.0062 8.81251ZM14.0062 20.6625C11.4375 20.6625 9.33749 18.5688 9.33749 15.9938C9.33749 13.4188 11.4312 11.325 14.0062 11.325C16.5812 11.325 18.675 13.4188 18.675 15.9938C18.675 18.5688 16.575 20.6625 14.0062 20.6625ZM23.1562 8.51876C23.1562 9.45001 22.4062 10.1938 21.4812 10.1938C20.55 10.1938 19.8062 9.44376 19.8062 8.51876C19.8062 7.59376 20.5562 6.84376 21.4812 6.84376C22.4062 6.84376 23.1562 7.59376 23.1562 8.51876ZM27.9125 10.2188C27.8062 7.97501 27.2937 5.98751 25.65 4.35001C24.0125 2.71251 22.025 2.20001 19.7812 2.08751C17.4687 1.95626 10.5375 1.95626 8.22499 2.08751C5.98749 2.19376 3.99999 2.70626 2.35624 4.34376C0.712488 5.98126 0.206238 7.96876 0.0937378 10.2125C-0.0375122 12.525 -0.0375122 19.4563 0.0937378 21.7688C0.199988 24.0125 0.712488 26 2.35624 27.6375C3.99999 29.275 5.98124 29.7875 8.22499 29.9C10.5375 30.0313 17.4687 30.0313 19.7812 29.9C22.025 29.7938 24.0125 29.2813 25.65 27.6375C27.2875 26 27.8 24.0125 27.9125 21.7688C28.0437 19.4563 28.0437 12.5313 27.9125 10.2188ZM24.925 24.25C24.4375 25.475 23.4937 26.4188 22.2625 26.9125C20.4187 27.6438 16.0437 27.475 14.0062 27.475C11.9687 27.475 7.58749 27.6375 5.74999 26.9125C4.52499 26.425 3.58124 25.4813 3.08749 24.25C2.35624 22.4063 2.52499 18.0313 2.52499 15.9938C2.52499 13.9563 2.36249 9.57501 3.08749 7.73751C3.57499 6.51251 4.51874 5.56876 5.74999 5.07501C7.59374 4.34376 11.9687 4.51251 14.0062 4.51251C16.0437 4.51251 20.425 4.35001 22.2625 5.07501C23.4875 5.56251 24.4312 6.50626 24.925 7.73751C25.6562 9.58126 25.4875 13.9563 25.4875 15.9938C25.4875 18.0313 25.6562 22.4125 24.925 24.25Z" fill="white"/>
</svg>
