<svg width="220" height="489" viewBox="0 0 220 489" fill="none" xmlns="http://www.w3.org/2000/svg">
<path d="M127.518 220.418L134.638 161.83L115.258 160.437L110.912 221.872C110.175 223.413 109.858 225.12 109.994 226.822C110.13 228.525 110.714 230.16 111.687 231.564C112.659 232.967 113.986 234.089 115.532 234.814C117.078 235.539 118.788 235.843 120.489 235.694C122.19 235.545 123.821 234.949 125.218 233.966C126.614 232.983 127.725 231.648 128.439 230.097C129.153 228.546 129.443 226.833 129.282 225.133C129.12 223.434 128.511 221.807 127.518 220.418Z" fill="#A0616A"/>
<path d="M152.404 79.5538C148.8 79.0621 145.135 79.791 141.994 81.6242C138.852 83.4574 136.415 86.2894 135.071 89.6687C126.925 110.144 111.211 150.319 112.065 153.446C113.214 157.656 114.362 158.038 111.3 159.57C108.238 161.102 104.027 158.423 108.238 161.102C112.449 163.78 107.09 164.547 109.004 166.46C110.919 168.374 142.691 172.579 142.691 172.579C142.691 172.579 135.674 151.245 138.032 148.133C140.39 145.02 148.046 148.847 144.218 145.02C140.389 141.192 136.824 140.135 141.286 138.367C145.747 136.598 149.656 134.644 149.656 134.644L164.911 102.725C166.017 100.409 166.561 97.8646 166.498 95.2988C166.435 92.7331 165.767 90.2185 164.548 87.9599C163.329 85.7014 161.593 83.7628 159.483 82.302C157.373 80.8412 154.947 79.8996 152.404 79.5538Z" fill="#E6E6E6"/>
<path d="M180.254 477.884L190.835 477.883L195.868 437.071H180.251L180.254 477.884Z" fill="#A0616A"/>
<path d="M179.881 488.922L212.42 488.921V488.509C212.42 485.15 211.086 481.929 208.711 479.554C206.335 477.179 203.114 475.845 199.755 475.845L193.811 471.336L182.721 475.846L179.88 475.846L179.881 488.922Z" fill="#2F2E41"/>
<path d="M10.2242 407.377L14.5546 417.031L53.8568 404.924L47.465 390.676L10.2242 407.377Z" fill="#A0616A"/>
<path d="M0 411.554L13.3151 441.243L13.6906 441.074C16.7554 439.7 19.1487 437.164 20.3441 434.025C21.5395 430.887 21.439 427.401 20.0648 424.337L21.747 417.068L13.0944 408.795L11.9321 406.203L0 411.554Z" fill="#2F2E41"/>
<path d="M169.977 54.7012C181.123 54.7012 190.158 45.6666 190.158 34.5218C190.158 23.3769 181.123 14.3423 169.977 14.3423C158.832 14.3423 149.797 23.3769 149.797 34.5218C149.797 45.6666 158.832 54.7012 169.977 54.7012Z" fill="#A0616A"/>
<path d="M205.844 221.506L129.583 219.085C129.583 219.085 113.447 250.309 123.331 269.799C133.215 289.288 125.39 344.504 125.39 344.504L26.6925 394.594L35.1659 413.96C35.1659 413.96 56.9545 412.75 60.586 409.119C63.9488 406.169 68.221 404.46 72.6908 404.277C75.1118 404.277 146.53 372.807 146.53 372.807L165.085 319.053L183.912 392.478L174.68 457.725L196.718 458.304C196.718 458.304 204.32 454.485 202.055 448.748C199.791 443.01 198.62 440.513 204.048 435.71C209.475 430.906 219.986 358.167 219.986 358.167L207.52 274.234C207.52 274.234 200.095 272.144 206.368 266.479C212.641 260.813 206.23 254.054 206.23 254.054C206.23 254.054 211.536 246.549 206.161 247.754C200.785 248.958 205.844 219.085 205.844 219.085" fill="#2F2E41"/>
<path d="M188.8 68.0511L160.642 66.3066L155.718 74.4558C155.718 74.4558 144.633 73.8364 147.054 77.4675C149.475 81.0987 148.068 78.1258 144.535 80.8227C141.002 83.5196 136.231 83.9984 138.616 86.1797C138.964 86.4978 138.824 87.4389 138.33 88.8144C128.587 115.232 126.189 143.798 131.393 171.47C133.047 179.894 134.103 186.041 133.739 186.404C132.529 187.614 126.476 186.404 130.108 190.035C133.739 193.666 139.791 190.035 132.529 197.298C125.266 204.56 110.015 235.315 127.687 237.241C145.358 239.167 211.21 234.82 209.999 229.979L201.526 196.087L194.625 98.5708L187.711 79.9455L188.8 68.0511Z" fill="#E6E6E6"/>
<path d="M190.272 239.103L178.508 181.267L159.681 186.071L174.977 245.731C174.764 247.425 175.004 249.145 175.671 250.717C176.338 252.289 177.409 253.656 178.775 254.68C180.142 255.704 181.755 256.349 183.451 256.549C185.146 256.748 186.865 256.496 188.432 255.817C189.999 255.138 191.358 254.057 192.372 252.683C193.386 251.309 194.018 249.691 194.205 247.994C194.392 246.297 194.126 244.58 193.436 243.019C192.745 241.457 191.653 240.106 190.272 239.103Z" fill="#A0616A"/>
<path d="M169.355 97.5944C165.781 98.267 162.534 100.117 160.134 102.849C157.733 105.581 156.316 109.038 156.108 112.669C154.852 134.669 152.643 177.751 154.441 180.448C156.862 184.079 158.073 184.079 155.652 186.5C153.231 188.92 148.389 187.71 153.231 188.92C158.073 190.131 153.231 192.552 155.652 193.762C158.073 194.972 189.545 188.92 189.545 188.92C189.545 188.92 176.145 170.898 177.398 167.2C178.651 163.502 187.124 164.712 182.282 162.291C177.44 159.871 173.724 159.995 177.398 156.907C181.072 153.819 184.162 150.729 184.162 150.729L188.545 115.625C188.863 113.078 188.575 110.492 187.704 108.078C186.834 105.663 185.405 103.489 183.534 101.731C181.664 99.974 179.404 98.6832 176.94 97.9643C174.476 97.2454 171.878 97.1186 169.355 97.5944Z" fill="#E6E6E6"/>
<path d="M176.061 53.9661C173.519 55.9029 170.766 57.5443 167.853 58.8587C164.912 60.174 161.61 60.4472 158.493 59.6333C156.945 59.1458 155.528 58.3122 154.35 57.1957C153.172 56.0792 152.264 54.7091 151.694 53.1893C150.582 50.1502 141.293 46.5998 143.046 43.8792C143.927 42.7969 144.657 41.5994 145.215 40.3199C145.469 39.6703 145.461 38.9477 145.194 38.3038C144.926 37.6598 144.419 37.1445 143.78 36.866C143.221 36.7851 142.651 36.8943 142.162 37.1761C141.672 37.4579 141.292 37.8959 141.081 38.4199C140.688 39.48 140.544 40.6166 140.66 41.7414C139.764 40.9909 139.136 39.9703 138.868 38.8325C138.601 37.6946 138.709 36.5008 139.177 35.4298L136.038 33.8535C138.748 32.7981 149.059 28.5229 146.767 26.7333C144.829 25.2193 138.588 20.3011 139.285 18.5293C140.099 16.8026 141.241 15.2505 142.647 13.9594C145.353 11.1344 148.304 8.16947 152.135 7.37758C155.408 6.70084 158.762 7.73594 161.977 8.64972C165.193 9.5635 168.672 10.3585 171.821 9.23605C174.97 8.11362 177.36 4.29134 175.784 1.34333C176.989 1.3324 178.173 1.66789 179.193 2.30985C180.213 2.95181 181.028 3.87326 181.54 4.96466L182.079 0C184.486 0.632533 186.711 1.82189 188.573 3.4721C190.291 5.25984 191.022 8.25858 189.524 10.2343C187.865 12.4238 184.154 12.673 183.171 15.2386C182.309 17.4895 184.177 19.7653 185.737 21.6031C187.297 23.4409 188.66 26.2934 187.023 28.0631C185.669 29.5275 183.291 29.0613 181.36 29.5626C178.448 30.3187 176.657 33.3875 176.275 36.3719C176.131 39.3789 176.356 42.3923 176.946 45.3446C177.53 48.3232 177.06 51.4124 175.617 54.0826" fill="black"/>
<path d="M189.208 24.126C190.419 23.3146 191.545 23.0258 192.546 23.1074C193.548 23.1891 194.477 23.6454 195.285 24.417C196.915 25.9726 198.02 28.7826 198.105 32.0898C198.073 35.669 197.071 38.5188 195.483 40.1533C194.693 40.966 193.757 41.4801 192.71 41.6504C191.661 41.8208 190.463 41.6519 189.14 41.0391L189.039 40.9932H188.93C187.951 40.9932 186.954 40.8015 186.222 40.3975C185.509 40.0037 185.079 39.4347 185.079 38.6299V25.5244C185.079 25.1067 185.192 24.8657 185.336 24.71C185.49 24.544 185.733 24.4155 186.095 24.3301C186.457 24.2447 186.894 24.2118 187.388 24.2031C187.891 24.1942 188.39 24.21 188.93 24.21H189.081L189.208 24.126Z" fill="white" stroke="black"/>
<path d="M175.395 37.5537L175.212 37.4033L167.015 30.7324L166.874 30.6172L166.692 30.6201L145.236 30.9707C144.567 30.97 143.926 30.7053 143.453 30.2324C142.979 29.7588 142.713 29.1161 142.713 28.4463C142.713 27.7764 142.979 27.1339 143.453 26.6602C143.927 26.1864 144.569 25.9199 145.239 25.9199H145.371L145.485 25.8545C148.808 23.9723 151.564 23.0598 154.912 22.8584C158.285 22.6555 162.28 23.1724 168.094 24.2021L168.572 24.2871L168.672 23.8125C168.69 23.7261 168.761 23.5983 168.985 23.4443C169.208 23.2907 169.536 23.1449 169.965 23.0137C170.822 22.7517 171.971 22.5794 173.207 22.4697C175.671 22.251 178.358 22.2891 179.469 22.2891H186.057C186.592 22.2891 187.123 22.3939 187.617 22.5986C188.111 22.8033 188.56 23.1033 188.938 23.4814C189.316 23.8598 189.617 24.3094 189.822 24.8037C190.008 25.2523 190.11 25.7304 190.128 26.2148C187.653 29.8467 188.047 33.8217 190.129 37.9033C190.115 38.4002 190.012 38.8908 189.822 39.3506C189.617 39.8449 189.316 40.2936 188.938 40.6719C188.56 41.0502 188.111 41.3509 187.617 41.5557C187.123 41.7604 186.592 41.8652 186.057 41.8652H179.469C178.935 41.8652 178.405 41.7603 177.911 41.5557C177.416 41.3509 176.967 41.0502 176.589 40.6719C176.21 40.2936 175.91 39.8447 175.706 39.3506C175.501 38.8563 175.395 38.326 175.395 37.791V37.5537Z" fill="white" stroke="black"/>
</svg>
