<svg width="407" height="719" viewBox="0 0 407 719" fill="none" xmlns="http://www.w3.org/2000/svg">
<path d="M210.787 355.588H181.147V718.652H210.787V355.588Z" fill="#162F48"/>
<path d="M406.528 192.936C405.431 171.508 398.139 149.991 383.809 134.031C377.555 127.066 351.116 110.735 342.684 106.63C345.885 81.4531 363.105 66.9305 350.509 45.3987C334.518 18.0874 301.158 2.06815 269.844 6.67684C258.637 8.38362 247.937 12.5099 238.485 18.7691C227.667 9.31459 212.862 3.50558 198.442 1.29756C153.02 -5.66733 104.455 15.8942 79.1722 54.2604C75.3501 60.0597 75.0907 68.738 77.0827 79.0833C84.7603 118.956 62.7596 157.819 24.9125 172.535C24.1845 172.803 23.5236 173.226 22.9755 173.775C1.1311 196.374 -6.04169 232.028 5.3844 261.325C8.08655 268.26 8.89138 280.317 16.3022 280.644C64.1639 282.751 67.8301 308.873 40.6902 347.714C35.0082 355.846 43.264 367.333 48.4062 375.979C60.2324 395.881 84.1073 406.106 107.226 407.469C130.241 408.833 152.975 402.742 175.22 396.681L204.859 395.496C230.364 399.897 257.04 399.2 281.211 390.072C307.279 380.217 330.013 359.678 338.638 333.182C341.587 324.128 392.345 335.479 391.589 325.951C404.216 319.504 366.04 289.807 375.599 279.315C396.9 255.729 408.017 224.681 406.528 192.936Z" fill="#1976D2"/>
<path opacity="0.1" d="M293.055 347.656C286.232 368.617 270.565 385.824 251.417 396.988C261.094 395.804 270.597 393.483 279.729 390.072C301.938 381.676 321.692 365.508 332.398 344.525C317.356 344.54 294.984 341.735 293.055 347.656Z" fill="black"/>
<path opacity="0.1" d="M375.599 279.315C396.899 255.729 408.016 224.681 406.528 192.936C405.431 171.508 398.139 149.991 383.809 134.031C377.555 127.066 351.116 110.735 342.684 106.63C345.885 81.4531 363.105 66.9306 350.509 45.3987C334.518 18.0874 301.158 2.06818 269.844 6.67686C258.637 8.38364 247.937 12.5099 238.485 18.7691C227.667 9.31461 212.862 3.50561 198.442 1.29759C172.228 -2.7219 144.977 2.77532 121.749 15.5045C132.572 14.0578 143.544 14.1478 154.342 15.7719C168.761 17.9799 183.566 23.789 194.385 33.2434C203.84 27.0491 231.243 11.2364 225.744 21.1512C202.237 63.5296 230.02 84.3284 306.408 59.873C318.572 55.9789 302.309 76.3972 283.108 100.633C265.359 123.037 285.001 155.388 313.084 150.062C326.8 147.46 337.6 146.157 339.708 148.505C354.039 164.465 405.882 189.639 362.427 207.41C318.972 225.182 352.661 270.583 331.498 293.79C324.783 301.16 341.61 318.001 347.848 329.609C363.231 328.418 392.161 333.163 391.589 325.951C404.216 319.504 366.04 289.807 375.599 279.315Z" fill="black"/>
</svg>
